<svg id="Layer_1" data-name="Layer 1" xmlns="http://www.w3.org/2000/svg" viewBox="0 0 840.58 160.68"><defs><style>.cls-1{fill:#fff;}.cls-2{fill:#95bfa7;opacity:0.75;}</style></defs><title>alitternation_wordmark_white_path</title><path class="cls-1" d="M105.92,325.74l-1.14-9.94h-0.49c-4.4,6.19-12.88,11.74-24.12,11.74-16,0-24.12-11.25-24.12-22.66,0-19.07,17-29.5,47.43-29.34V273.9c0-6.52-1.79-18.26-17.93-18.26A39.31,39.31,0,0,0,65,261.52l-3.26-9.45c6.52-4.24,16-7,25.92-7,24.12,0,30,16.46,30,32.27v29.5a111.07,111.07,0,0,0,1.3,18.91h-13Zm-2.12-40.26c-15.65-.33-33.41,2.45-33.41,17.77,0,9.29,6.19,13.69,13.53,13.69A19.63,19.63,0,0,0,103,303.73a15,15,0,0,0,.81-4.56V285.48Z" transform="translate(-56.04 -210.01)"/><path class="cls-2" d="M142.43,210h14.34V325.74H142.43V210Z" transform="translate(-56.04 -210.01)"/><path class="cls-2" d="M198.5,224.68c0.16,4.89-3.42,8.8-9.13,8.8a8.53,8.53,0,0,1-8.64-8.8,8.74,8.74,0,0,1,9-9C195.08,215.72,198.5,219.63,198.5,224.68Zm-16,101.06V246.85h14.34v78.89H182.53Z" transform="translate(-56.04 -210.01)"/><path class="cls-2" d="M239.58,224.19v22.66h20.54v10.92H239.58v42.54c0,9.78,2.77,15.32,10.76,15.32a31.89,31.89,0,0,0,8.31-1l0.65,10.76a35.12,35.12,0,0,1-12.71,2c-6.68,0-12.06-2.12-15.48-6-4.07-4.24-5.54-11.25-5.54-20.54v-43H213.34V246.85h12.22V227.94Z" transform="translate(-56.04 -210.01)"/><path class="cls-2" d="M295.16,224.19v22.66H315.7v10.92H295.16v42.54c0,9.78,2.77,15.32,10.76,15.32a31.89,31.89,0,0,0,8.31-1l0.65,10.76a35.12,35.12,0,0,1-12.71,2c-6.68,0-12.06-2.12-15.48-6-4.07-4.24-5.54-11.25-5.54-20.54v-43H268.92V246.85h12.22V227.94Z" transform="translate(-56.04 -210.01)"/><path class="cls-2" d="M340.47,288.9c0.33,19.4,12.71,27.38,27.06,27.38,10.27,0,16.46-1.79,21.84-4.07l2.45,10.27c-5.05,2.28-13.69,4.89-26.24,4.89-24.29,0-38.79-16-38.79-39.77s14-42.54,37-42.54c25.75,0,32.6,22.66,32.6,37.16a54.07,54.07,0,0,1-.49,6.68H340.47Zm42.05-10.27c0.16-9.13-3.75-23.31-19.89-23.31-14.51,0-20.86,13.37-22,23.31h41.89Z" transform="translate(-56.04 -210.01)"/><path class="cls-2" d="M415.78,271.46c0-9.29-.16-17.28-0.65-24.61h12.55l0.49,15.48h0.65c3.59-10.59,12.22-17.28,21.84-17.28a15.53,15.53,0,0,1,4.08.49v13.53a21.54,21.54,0,0,0-4.89-.49c-10.11,0-17.28,7.66-19.23,18.42a40.35,40.35,0,0,0-.65,6.68v42.05H415.78V271.46Z" transform="translate(-56.04 -210.01)"/><path class="cls-1" d="M471.36,268.2c0-8.15-.16-14.83-0.65-21.35h12.71l0.82,13h0.33c3.91-7.5,13-14.83,26.08-14.83,10.92,0,27.87,6.52,27.87,33.58v47.11H524.17V280.26c0-12.71-4.73-23.31-18.26-23.31-9.45,0-16.79,6.68-19.23,14.67a20.64,20.64,0,0,0-1,6.68v47.43H471.36V268.2Z" transform="translate(-56.04 -210.01)"/><path class="cls-1" d="M607.14,325.74L606,315.79h-0.49c-4.4,6.19-12.88,11.74-24.12,11.74-16,0-24.12-11.25-24.12-22.66,0-19.07,17-29.5,47.43-29.34V273.9c0-6.52-1.79-18.26-17.93-18.26a39.3,39.3,0,0,0-20.54,5.87L563,252.06c6.52-4.24,16-7,25.92-7,24.12,0,30,16.46,30,32.27v29.5a111,111,0,0,0,1.3,18.91h-13ZM605,285.48c-15.65-.33-33.41,2.45-33.41,17.77,0,9.29,6.19,13.69,13.53,13.69a19.63,19.63,0,0,0,19.07-13.2,15,15,0,0,0,.81-4.56V285.48Z" transform="translate(-56.04 -210.01)"/><path class="cls-1" d="M660.27,224.19v22.66h20.54v10.92H660.27v42.54c0,9.78,2.77,15.32,10.76,15.32a31.89,31.89,0,0,0,8.31-1L680,325.41a35.12,35.12,0,0,1-12.71,2c-6.68,0-12.06-2.12-15.48-6-4.08-4.24-5.54-11.25-5.54-20.54v-43H634V246.85h12.22V227.94Z" transform="translate(-56.04 -210.01)"/><path class="cls-1" d="M714.55,224.68c0.16,4.89-3.42,8.8-9.13,8.8a8.53,8.53,0,0,1-8.64-8.8,8.74,8.74,0,0,1,9-9C711.13,215.72,714.55,219.63,714.55,224.68Zm-16,101.06V246.85h14.34v78.89H698.58Z" transform="translate(-56.04 -210.01)"/><path class="cls-1" d="M809.74,285.64c0,29.18-20.21,41.89-39.28,41.89-21.35,0-37.82-15.65-37.82-40.59,0-26.41,17.28-41.89,39.12-41.89C794.42,245.05,809.74,261.52,809.74,285.64Zm-62.59.81c0,17.28,9.94,30.32,24,30.32,13.69,0,24-12.88,24-30.64,0-13.37-6.68-30.32-23.63-30.32S747.15,271.46,747.15,286.46Z" transform="translate(-56.04 -210.01)"/><path class="cls-1" d="M829.47,268.2c0-8.15-.16-14.83-0.65-21.35h12.71l0.82,13h0.33c3.91-7.5,13-14.83,26.08-14.83,10.92,0,27.87,6.52,27.87,33.58v47.11H882.28V280.26c0-12.71-4.73-23.31-18.26-23.31-9.45,0-16.79,6.68-19.23,14.67a20.64,20.64,0,0,0-1,6.68v47.43H829.47V268.2Z" transform="translate(-56.04 -210.01)"/><path class="cls-1" d="M487.8,370.7h23.47a5.39,5.39,0,0,1-.26-1.15q0-13.35,0-26.69a5.39,5.39,0,0,1,.26-1.15H487.8a5.35,5.35,0,0,1,.26,1.15q0,13.35,0,26.69A5.34,5.34,0,0,1,487.8,370.7Z" transform="translate(-56.04 -210.01)"/><path class="cls-1" d="M339.91,370.7h23.47a5.39,5.39,0,0,1-.26-1.15q0-13.35,0-26.69a5.39,5.39,0,0,1,.26-1.15H339.91a5.35,5.35,0,0,1,.26,1.15q0,13.35,0,26.69A5.35,5.35,0,0,1,339.91,370.7Z" transform="translate(-56.04 -210.01)"/><path class="cls-1" d="M688.5,341.7H666.2c0,3,.12,5.9.12,8.85,0,6.72-.08,13.43-0.12,20.15h22.3a6.79,6.79,0,0,1-.24-1.27q0-13.23,0-26.45A6.8,6.8,0,0,1,688.5,341.7Z" transform="translate(-56.04 -210.01)"/><path class="cls-1" d="M802.36,370.7h22.3a5.58,5.58,0,0,1-.25-1.16q0-13.34,0-26.69a5.58,5.58,0,0,1,.25-1.16h-22.3v29Z" transform="translate(-56.04 -210.01)"/><path class="cls-1" d="M275.36,370.7h22.3v-29h-22.3a7.21,7.21,0,0,1,.23,1.27q0,13.23,0,26.45A7.21,7.21,0,0,1,275.36,370.7Z" transform="translate(-56.04 -210.01)"/><path class="cls-1" d="M102.82,370.7a5.58,5.58,0,0,1-.25-1.16q0-13.34,0-26.69a5.58,5.58,0,0,1,.25-1.16H92.26c0.05,0.62.16,1.24,0.16,1.86q0,10.54,0,21.08c0,2-.1,4-0.16,6.05h10.56Z" transform="translate(-56.04 -210.01)"/><path class="cls-1" d="M410.33,370.7a7,7,0,0,1-.24-1.27q0-13.23,0-26.45a7,7,0,0,1,.24-1.27H399.77v29h10.56Z" transform="translate(-56.04 -210.01)"/><path class="cls-1" d="M622.78,370.7v-29H612.21a5.44,5.44,0,0,1,.25,1.15q0,13.35,0,26.69a5.44,5.44,0,0,1-.25,1.15h10.56Z" transform="translate(-56.04 -210.01)"/><path class="cls-1" d="M528.88,370.7a5.5,5.5,0,0,1-.25-1.15q0-13.35,0-26.69a5.5,5.5,0,0,1,.25-1.15H518.32c0,2.79.12,5.59,0.12,8.38,0,6.87-.08,13.74-0.12,20.62h10.56Z" transform="translate(-56.04 -210.01)"/><path class="cls-1" d="M222.54,341.7v29H233.1a5.44,5.44,0,0,1-.25-1.15q0-13.35,0-26.69a5.44,5.44,0,0,1,.25-1.15H222.54Z" transform="translate(-56.04 -210.01)"/><path class="cls-1" d="M742.5,341.7a5.5,5.5,0,0,1,.25,1.15q0,13.35,0,26.69a5.49,5.49,0,0,1-.25,1.15h10.56c0-2.83-.12-5.67-0.12-8.5,0-6.83.08-13.67,0.12-20.5H742.5Z" transform="translate(-56.04 -210.01)"/><path class="cls-1" d="M854,370.7a7.22,7.22,0,0,1-.23-1.27q0-13.23,0-26.45a7.21,7.21,0,0,1,.23-1.27H843.44a7.56,7.56,0,0,1,.22,1.27q0,13.23,0,26.45a7.56,7.56,0,0,1-.22,1.27H854Z" transform="translate(-56.04 -210.01)"/><path class="cls-1" d="M138,370.7a7.57,7.57,0,0,1-.22-1.27q0-13.22,0-26.45a7.57,7.57,0,0,1,.22-1.27H127.47a7.22,7.22,0,0,1,.23,1.27q0,13.23,0,26.45a7.22,7.22,0,0,1-.23,1.27H138Z" transform="translate(-56.04 -210.01)"/><path class="cls-1" d="M61.74,341.7a5.31,5.31,0,0,1,.26,1.15q0,13.35,0,26.69a5.31,5.31,0,0,1-.26,1.15h5.87a5.35,5.35,0,0,1-.26-1.15q0-13.35,0-26.69a5.35,5.35,0,0,1,.26-1.15H61.74Z" transform="translate(-56.04 -210.01)"/><path class="cls-1" d="M777.71,341.7a5.31,5.31,0,0,1,.26,1.15q0,13.35,0,26.69a5.31,5.31,0,0,1-.26,1.15h5.87a5.31,5.31,0,0,1-.26-1.15q0-13.35,0-26.69a5.32,5.32,0,0,1,.26-1.15h-5.87Z" transform="translate(-56.04 -210.01)"/><path class="cls-1" d="M653.29,370.7a5.39,5.39,0,0,1-.26-1.15q0-13.35,0-26.69a5.39,5.39,0,0,1,.26-1.15H648.6v29h4.69Z" transform="translate(-56.04 -210.01)"/><path class="cls-1" d="M155.64,370.7a18.64,18.64,0,0,1-.18-1.86q0-12.64,0-25.28a18.64,18.64,0,0,1,.18-1.86h-4.69a6.8,6.8,0,0,1,.24,1.27q0,13.23,0,26.45a6.8,6.8,0,0,1-.24,1.27h4.69Z" transform="translate(-56.04 -210.01)"/><path class="cls-1" d="M85.21,370.7a5.44,5.44,0,0,1-.25-1.15q0-13.35,0-26.69a5.44,5.44,0,0,1,.25-1.15H80.52v29h4.69Z" transform="translate(-56.04 -210.01)"/><path class="cls-1" d="M162.68,341.7a5.58,5.58,0,0,1,.25,1.16q0,13.34,0,26.69a5.58,5.58,0,0,1-.25,1.16h4.69c-0.05-2-.15-4-0.16-6.05q0-10.54,0-21.08c0-.62.1-1.24,0.16-1.86h-4.69Z" transform="translate(-56.04 -210.01)"/><path class="cls-1" d="M695.55,341.7v29h4.69a7,7,0,0,1-.24-1.27q0-13.23,0-26.45a7,7,0,0,1,.24-1.27h-4.69Z" transform="translate(-56.04 -210.01)"/><path class="cls-1" d="M192,341.7a5.35,5.35,0,0,1,.26,1.15q0,13.35,0,26.69a5.35,5.35,0,0,1-.26,1.15h4.69v-29H192Z" transform="translate(-56.04 -210.01)"/><path class="cls-1" d="M713.15,341.7a7.21,7.21,0,0,1,.23,1.27q0,13.23,0,26.45a7.21,7.21,0,0,1-.23,1.27h4.69a7.57,7.57,0,0,1-.22-1.27q0-13.23,0-26.45a7.56,7.56,0,0,1,.22-1.27h-4.69Z" transform="translate(-56.04 -210.01)"/><path class="cls-1" d="M240.14,341.7c0.05,2,.15,4,0.16,6.05q0,10.54,0,21.08c0,0.62-.1,1.24-0.16,1.86h4.69a5.58,5.58,0,0,1-.25-1.16q0-13.34,0-26.69a5.58,5.58,0,0,1,.25-1.16h-4.69Z" transform="translate(-56.04 -210.01)"/><path class="cls-1" d="M262.45,370.7a7,7,0,0,1-.24-1.27q0-13.23,0-26.45a7,7,0,0,1,.24-1.27h-4.69v29h4.69Z" transform="translate(-56.04 -210.01)"/><path class="cls-1" d="M558.22,370.7a7,7,0,0,1-.24-1.27q0-13.23,0-26.45a7,7,0,0,1,.24-1.27h-4.69a7.57,7.57,0,0,1,.22,1.27q0,13.23,0,26.45a7.57,7.57,0,0,1-.22,1.27h4.69Z" transform="translate(-56.04 -210.01)"/><path class="cls-1" d="M760.1,341.7a5.44,5.44,0,0,1,.25,1.15q0,13.35,0,26.69a5.44,5.44,0,0,1-.25,1.15h4.69v-29H760.1Z" transform="translate(-56.04 -210.01)"/><path class="cls-1" d="M304.7,341.7a5.58,5.58,0,0,1,.25,1.16q0,13.34,0,26.69a5.58,5.58,0,0,1-.25,1.16h4.69c-0.05-2-.15-4-0.16-6.05q0-10.54,0-21.08c0-.62.1-1.24,0.16-1.86H304.7Z" transform="translate(-56.04 -210.01)"/><path class="cls-1" d="M565.26,341.7a7.22,7.22,0,0,1,.23,1.27q0,13.23,0,26.45a7.22,7.22,0,0,1-.23,1.27H570a7.57,7.57,0,0,1-.22-1.27q0-13.22,0-26.45a7.57,7.57,0,0,1,.22-1.27h-4.69Z" transform="translate(-56.04 -210.01)"/><path class="cls-1" d="M474.89,370.7v-29h-4.69a5.44,5.44,0,0,1,.25,1.15q0,13.35,0,26.69a5.44,5.44,0,0,1-.25,1.15h4.69Z" transform="translate(-56.04 -210.01)"/><path class="cls-1" d="M327,370.7v-29H322.3a5.44,5.44,0,0,1,.25,1.15q0,13.35,0,26.69a5.44,5.44,0,0,1-.25,1.15H327Z" transform="translate(-56.04 -210.01)"/><path class="cls-1" d="M587.56,370.7a18.63,18.63,0,0,1-.18-1.86q0-12.64,0-25.28a18.65,18.65,0,0,1,.18-1.86h-4.69a6.8,6.8,0,0,1,.24,1.27q0,13.23,0,26.45a6.8,6.8,0,0,1-.24,1.27h4.69Z" transform="translate(-56.04 -210.01)"/><path class="cls-1" d="M836.39,370.7a6.79,6.79,0,0,1-.24-1.27q0-13.23,0-26.45a6.8,6.8,0,0,1,.24-1.27H831.7a18.65,18.65,0,0,1,.18,1.86q0,12.64,0,25.28a18.63,18.63,0,0,1-.18,1.86h4.69Z" transform="translate(-56.04 -210.01)"/><path class="cls-1" d="M370.43,341.7v29h4.69a5.44,5.44,0,0,1-.25-1.15q0-13.35,0-26.69a5.44,5.44,0,0,1,.25-1.15h-4.69Z" transform="translate(-56.04 -210.01)"/><path class="cls-1" d="M605.17,370.7c0-6.83-.1-13.67-0.12-20.5,0-2.83.08-5.67,0.12-8.5h-4.69a5.5,5.5,0,0,1,.25,1.15q0,13.35,0,26.69a5.5,5.5,0,0,1-.25,1.15h4.69Z" transform="translate(-56.04 -210.01)"/><path class="cls-1" d="M392.73,370.7a5.58,5.58,0,0,1-.25-1.16q0-13.34,0-26.69a5.58,5.58,0,0,1,.25-1.16H388c0.05,2,.15,4,0.16,6.05q0,10.54,0,21.08c0,0.62-.1,1.24-0.16,1.86h4.69Z" transform="translate(-56.04 -210.01)"/><path class="cls-1" d="M883.34,370.7a18.63,18.63,0,0,1-.18-1.86q0-12.64,0-25.28a18.65,18.65,0,0,1,.18-1.86h-4.69a5.58,5.58,0,0,1,.25,1.16q0,13.34,0,26.69a5.58,5.58,0,0,1-.25,1.16h4.69Z" transform="translate(-56.04 -210.01)"/><path class="cls-1" d="M423.24,341.7a7.22,7.22,0,0,1,.23,1.27q0,13.23,0,26.45a7.22,7.22,0,0,1-.23,1.27h4.69a7.57,7.57,0,0,1-.22-1.27q0-13.22,0-26.45a7.57,7.57,0,0,1,.22-1.27h-4.69Z" transform="translate(-56.04 -210.01)"/><path class="cls-1" d="M890.38,341.7a5.5,5.5,0,0,1,.25,1.15q0,13.35,0,26.69a5.49,5.49,0,0,1-.25,1.15h4.69c0-6.83-.1-13.67-0.12-20.5,0-2.83.08-5.67,0.12-8.5h-4.69Z" transform="translate(-56.04 -210.01)"/><path class="cls-1" d="M457.28,370.7c-0.05-2-.15-4-0.16-6.05q0-10.54,0-21.08c0-.62.1-1.24,0.16-1.86h-4.69a5.5,5.5,0,0,1,.25,1.15q0,13.35,0,26.69a5.5,5.5,0,0,1-.25,1.15h4.69Z" transform="translate(-56.04 -210.01)"/></svg>